<svg width="20" height="20" viewBox="0 0 20 20" fill="none" xmlns="http://www.w3.org/2000/svg">
<path d="M17.5 17.5H7.83333C5.96667 17.5 5.03333 17.5 4.32 17.1367C3.69282 16.8171 3.18291 16.3072 2.86333 15.68C2.5 14.9667 2.5 14.0333 2.5 12.1667V2.5" stroke="black" stroke-width="1.5" stroke-linecap="round" stroke-linejoin="round"/>
<path d="M11.2154 9.83002L14.6604 5.85502C15.1663 5.27169 16.1238 5.62919 16.1238 6.40002V13.3334C16.1238 13.7754 15.9482 14.1993 15.6356 14.5119C15.3231 14.8244 14.8991 15 14.4571 15H6.66711C6.38631 15.0001 6.11003 14.9292 5.86394 14.794C5.61785 14.6587 5.40992 14.4635 5.25945 14.2264C5.10899 13.9893 5.02086 13.7181 5.00326 13.4378C4.98566 13.1576 5.03916 12.8774 5.15878 12.6234L6.93795 8.84252C6.99064 8.73056 7.06762 8.63173 7.16327 8.55323C7.25893 8.47472 7.37087 8.4185 7.49097 8.38866C7.61106 8.35882 7.7363 8.35609 7.85758 8.38069C7.97885 8.40529 8.09313 8.45658 8.19211 8.53086L10.0863 9.95086C10.2549 10.0772 10.4651 10.135 10.6746 10.1126C10.8841 10.0901 11.0774 9.98919 11.2154 9.83002Z" stroke="black" stroke-width="1.5" stroke-linecap="round" stroke-linejoin="round"/>
</svg>
