<svg width="24" height="24" viewBox="0 0 24 24" fill="none" xmlns="http://www.w3.org/2000/svg">
<path d="M11.5784 6.625H18C18.4641 6.625 18.9092 6.80937 19.2374 7.13756C19.5656 7.46575 19.75 7.91087 19.75 8.375V16.25C19.75 16.7141 19.5656 17.1592 19.2374 17.4874C18.9092 17.8156 18.4641 18 18 18H5.75C5.28587 18 4.84075 17.8156 4.51256 17.4874C4.18437 17.1592 4 16.7141 4 16.25V6.625M11.5784 6.625C11.1524 6.62481 10.7411 6.46926 10.4216 6.1875L8.43363 4.4375C8.11414 4.15574 7.70285 4.00019 7.27687 4H5.75C5.28587 4 4.84075 4.18437 4.51256 4.51256C4.18437 4.84075 4 5.28587 4 5.75V6.625M11.5784 6.625H4Z" fill="#58A0FF"/>
<path d="M11.5784 6.625H18C18.4641 6.625 18.9092 6.80937 19.2374 7.13756C19.5656 7.46575 19.75 7.91087 19.75 8.375V16.25C19.75 16.7141 19.5656 17.1592 19.2374 17.4874C18.9092 17.8156 18.4641 18 18 18H5.75C5.28587 18 4.84075 17.8156 4.51256 17.4874C4.18437 17.1592 4 16.7141 4 16.25V6.625M11.5784 6.625C11.1524 6.62481 10.7411 6.46926 10.4216 6.1875L8.43363 4.4375C8.11414 4.15574 7.70285 4.00019 7.27687 4H5.75C5.28587 4 4.84075 4.18437 4.51256 4.51256C4.18437 4.84075 4 5.28587 4 5.75V6.625M11.5784 6.625H4" stroke="#58A0FF" stroke-width="1.5" stroke-linecap="round" stroke-linejoin="round"/>
</svg>
