<svg width="20" height="20" viewBox="0 0 20 20" fill="none" xmlns="http://www.w3.org/2000/svg">
<path fill-rule="evenodd" clip-rule="evenodd" d="M10.0003 1.04199C5.05278 1.04199 1.04199 5.05278 1.04199 10.0003C1.04199 14.9479 5.05278 18.9587 10.0003 18.9587C14.9479 18.9587 18.9587 14.9479 18.9587 10.0003C18.9587 5.05278 14.9479 1.04199 10.0003 1.04199ZM6.27569 9.97508C6.03162 9.73099 5.63589 9.73099 5.39181 9.97508C5.14773 10.2192 5.14773 10.6148 5.39181 10.8589L7.89181 13.3589C8.13589 13.603 8.53166 13.603 8.77566 13.3589L14.609 7.5256C14.8531 7.28153 14.8531 6.88579 14.609 6.64172C14.3649 6.39764 13.9692 6.39764 13.7252 6.64172L8.33374 12.0331L6.27569 9.97508Z" fill="#1E1E1E"/>
</svg>
