<svg width="21" height="21" viewBox="0 0 21 21" fill="none" xmlns="http://www.w3.org/2000/svg">
<path fill-rule="evenodd" clip-rule="evenodd" d="M10.9759 1.69531C6.02836 1.69531 2.01758 5.7061 2.01758 10.6536C2.01758 15.6012 6.02836 19.612 10.9759 19.612C15.9235 19.612 19.9342 15.6012 19.9342 10.6536C19.9342 5.7061 15.9235 1.69531 10.9759 1.69531ZM7.25128 10.6284C7.0072 10.3843 6.61148 10.3843 6.36739 10.6284C6.12332 10.8725 6.12332 11.2681 6.36739 11.5122L8.86739 14.0122C9.11148 14.2563 9.50724 14.2563 9.75124 14.0122L15.5846 8.17892C15.8287 7.93485 15.8287 7.53911 15.5846 7.29504C15.3405 7.05096 14.9448 7.05096 14.7007 7.29504L9.30933 12.6864L7.25128 10.6284Z" fill="#1ED01E"/>
</svg>
