<svg width="16" height="16" viewBox="0 0 16 16" fill="none" xmlns="http://www.w3.org/2000/svg">
<path d="M13.886 8.574C14 8.29867 14 7.94867 14 7.25C14 6.55133 14 6.20133 13.886 5.926C13.8106 5.74395 13.7001 5.57854 13.5608 5.43922C13.4215 5.29989 13.256 5.18938 13.074 5.114C12.7987 5 12.4487 5 11.75 5H7.4C6.56 5 6.14 5 5.81933 5.16333C5.53684 5.30719 5.30719 5.53684 5.16333 5.81933C5 6.13933 5 6.55933 5 7.4V11.75C5 12.4487 5 12.7987 5.114 13.074C5.26667 13.4413 5.55867 13.734 5.926 13.886C6.20133 14 6.55133 14 7.25 14C7.94867 14 8.29867 14 8.574 13.886M13.886 8.574C13.8106 8.75605 13.7001 8.92146 13.5608 9.06078C13.4215 9.20011 13.256 9.31062 13.074 9.386C12.7987 9.5 12.4487 9.5 11.75 9.5C11.0513 9.5 10.7013 9.5 10.426 9.614C10.244 9.68938 10.0785 9.79989 9.93922 9.93922C9.79989 10.0785 9.68938 10.244 9.614 10.426C9.5 10.7013 9.5 11.0513 9.5 11.75C9.5 12.4487 9.5 12.7987 9.386 13.074C9.31062 13.256 9.20011 13.4215 9.06078 13.5608C8.92146 13.7001 8.75605 13.8106 8.574 13.886M13.886 8.574C13.5274 9.8106 12.8677 10.939 11.966 11.8581C11.0643 12.7772 9.94883 13.4584 8.71933 13.8407L8.574 13.886M11 5V4.4C11 3.56 11 3.14 10.8367 2.81933C10.693 2.53694 10.4636 2.3073 10.1813 2.16333C9.86 2 9.44 2 8.6 2H4.4C3.56 2 3.14 2 2.81933 2.16333C2.53684 2.30719 2.30719 2.53684 2.16333 2.81933C2 3.13933 2 3.55933 2 4.4V8.6C2 9.44 2 9.86 2.16333 10.1807C2.30733 10.4633 2.53667 10.6927 2.81933 10.8367C3.13933 11 3.56 11 4.40067 11H5" stroke="#743D02" stroke-linecap="round" stroke-linejoin="round"/>
</svg>
