<svg width="21" height="20" viewBox="0 0 21 20" fill="none" xmlns="http://www.w3.org/2000/svg">
<path d="M4.10059 9.99902H17.8506M4.10059 13.124H17.8506M4.10059 16.249H17.8506M5.66309 3.74902H16.2881C16.7025 3.74902 17.0999 3.91364 17.3929 4.20667C17.686 4.49969 17.8506 4.89712 17.8506 5.31152C17.8506 5.72592 17.686 6.12335 17.3929 6.41638C17.0999 6.7094 16.7025 6.87402 16.2881 6.87402H5.66309C5.24869 6.87402 4.85126 6.7094 4.55823 6.41638C4.26521 6.12335 4.10059 5.72592 4.10059 5.31152C4.10059 4.89712 4.26521 4.49969 4.55823 4.20667C4.85126 3.91364 5.24869 3.74902 5.66309 3.74902Z" stroke="#FFBB00" stroke-width="1.5" stroke-linecap="round" stroke-linejoin="round"/>
</svg>
