<svg width="21" height="21" viewBox="0 0 21 21" fill="none" xmlns="http://www.w3.org/2000/svg">
<path fill-rule="evenodd" clip-rule="evenodd" d="M10.9759 1.94141C6.02836 1.94141 2.01758 5.95219 2.01758 10.8997C2.01758 15.8473 6.02836 19.8581 10.9759 19.8581C15.9235 19.8581 19.9342 15.8473 19.9342 10.8997C19.9342 5.95219 15.9235 1.94141 10.9759 1.94141ZM14.3345 10.0412L11.4178 7.12446C11.1737 6.88039 10.7781 6.88039 10.534 7.12446L7.6173 10.0412C7.37323 10.2852 7.37323 10.6809 7.6173 10.925C7.86138 11.1691 8.25711 11.1691 8.50119 10.925L10.3509 9.07529V14.2331C10.3509 14.5782 10.6307 14.8581 10.9759 14.8581C11.3211 14.8581 11.6009 14.5782 11.6009 14.2331V9.07529L13.4507 10.925C13.6947 11.1691 14.0904 11.1691 14.3345 10.925C14.5786 10.6809 14.5786 10.2852 14.3345 10.0412Z" fill="#007BFF"/>
</svg>
