<svg width="20" height="20" viewBox="0 0 20 20" fill="none" xmlns="http://www.w3.org/2000/svg">
<path d="M12.5 7.49999L7.49999 12.5M7.49999 7.49999L12.5 12.5M2.25583 8.57916C2.06912 8.76568 1.921 8.98716 1.81994 9.23096C1.71889 9.47476 1.66687 9.73608 1.66687 9.99999C1.66687 10.2639 1.71889 10.5252 1.81994 10.769C1.921 11.0128 2.06912 11.2343 2.25583 11.4208L8.57916 17.7442C8.76568 17.9309 8.98716 18.079 9.23096 18.18C9.47476 18.2811 9.73608 18.3331 9.99999 18.3331C10.2639 18.3331 10.5252 18.2811 10.769 18.18C11.0128 18.079 11.2343 17.9309 11.4208 17.7442L17.7442 11.4208C17.9309 11.2343 18.079 11.0128 18.18 10.769C18.2811 10.5252 18.3331 10.2639 18.3331 9.99999C18.3331 9.73608 18.2811 9.47476 18.18 9.23096C18.079 8.98716 17.9309 8.76568 17.7442 8.57916L11.4208 2.25583C11.2343 2.06912 11.0128 1.921 10.769 1.81994C10.5252 1.71889 10.2639 1.66687 9.99999 1.66687C9.73608 1.66687 9.47476 1.71889 9.23096 1.81994C8.98716 1.921 8.76568 2.06912 8.57916 2.25583L2.25583 8.57916Z" stroke="#003CFF" stroke-width="1.5" stroke-linecap="round" stroke-linejoin="round"/>
</svg>
