<svg width="24" height="24" viewBox="0 0 24 24" fill="none" xmlns="http://www.w3.org/2000/svg">
<path d="M15 8.99995L8.99996 15M8.99996 8.99995L15 15M9.71297 3.63995C10.294 3.14495 10.585 2.89695 10.889 2.75195C11.2359 2.5864 11.6155 2.50049 12 2.50049C12.3844 2.50049 12.764 2.5864 13.111 2.75195C13.415 2.89695 13.706 3.14495 14.287 3.63995C14.886 4.14995 15.494 4.40795 16.294 4.47095C17.055 4.53195 17.436 4.56295 17.754 4.67495C18.488 4.93495 19.066 5.51195 19.325 6.24695C19.437 6.56395 19.468 6.94495 19.529 7.70695C19.592 8.50695 19.849 9.11395 20.359 9.71295C20.855 10.294 21.103 10.585 21.248 10.889C21.584 11.592 21.584 12.409 21.248 13.111C21.103 13.415 20.855 13.706 20.36 14.287C19.8644 14.843 19.5715 15.5503 19.529 16.294C19.468 17.055 19.437 17.436 19.325 17.754C19.1966 18.1164 18.9888 18.4456 18.7168 18.7174C18.4448 18.9892 18.1155 19.1968 17.753 19.325C17.436 19.437 17.055 19.468 16.293 19.529C15.493 19.592 14.886 19.849 14.287 20.359C13.706 20.855 13.415 21.103 13.111 21.248C12.764 21.4135 12.3844 21.4994 12 21.4994C11.6155 21.4994 11.2359 21.4135 10.889 21.248C10.585 21.103 10.294 20.855 9.71297 20.36C9.15692 19.8644 8.44957 19.5715 7.70596 19.529C6.94496 19.468 6.56396 19.437 6.24596 19.325C5.88351 19.1966 5.55434 18.9888 5.28252 18.7168C5.01071 18.4448 4.80313 18.1155 4.67496 17.753C4.56296 17.436 4.53196 17.055 4.47096 16.293C4.42845 15.5498 4.13595 14.8429 3.64096 14.287C3.14496 13.706 2.89696 13.415 2.75096 13.111C2.58557 12.7639 2.49983 12.3843 2.5 11.9998C2.50017 11.6154 2.58626 11.2359 2.75196 10.889C2.89696 10.585 3.14496 10.294 3.63996 9.71295C4.15996 9.10195 4.40896 8.48995 4.47096 7.70595C4.53196 6.94495 4.56296 6.56395 4.67496 6.24595C4.80336 5.8835 5.01115 5.55432 5.28314 5.28251C5.55512 5.0107 5.88443 4.80312 6.24696 4.67495C6.56396 4.56295 6.94496 4.53195 7.70696 4.47095C8.4501 4.42844 9.15704 4.13494 9.71297 3.63995Z" stroke="white" stroke-width="1.5" stroke-linecap="round" stroke-linejoin="round"/>
</svg>
