<svg width="24" height="24" viewBox="0 0 24 24" fill="none" xmlns="http://www.w3.org/2000/svg">
<path d="M21 16.2V14.1C21 12.42 21 11.58 20.673 10.938C20.3854 10.3735 19.9265 9.91462 19.362 9.627C18.72 9.3 17.88 9.3 16.2 9.3H14.7V7.8C14.7 6.12 14.7 5.28 14.373 4.638C14.0854 4.07354 13.6265 3.61462 13.062 3.327C12.42 3 11.58 3 9.9 3H7.8C6.12 3 5.28 3 4.638 3.327C4.07354 3.61462 3.61462 4.07354 3.327 4.638C3 5.28 3 6.12 3 7.8V9.9C3 11.58 3 12.42 3.327 13.062C3.61462 13.6265 4.07354 14.0854 4.638 14.373C5.28 14.7 6.12 14.7 7.8 14.7H9.3V16.2C9.3 17.88 9.3 18.72 9.627 19.362C9.91462 19.9265 10.3735 20.3854 10.938 20.673C11.58 21 12.42 21 14.1 21H16.2C17.88 21 18.72 21 19.362 20.673C19.9265 20.3854 20.3854 19.9265 20.673 19.362C21 18.72 21 17.88 21 16.2Z" stroke="#003CFF" stroke-width="1.5" stroke-linecap="round" stroke-linejoin="round"/>
</svg>
