<svg width="20" height="20" viewBox="0 0 20 20" fill="none" xmlns="http://www.w3.org/2000/svg">
<path d="M12.8017 7.55417L13.9017 8.65417C14.7308 9.48333 15.0225 7.95417 16.18 7.7625C16.5683 7.6975 16.9108 7.56583 17.0575 7.13583C17.1875 6.75583 17.04 6.39833 16.5792 5.9375L15.4167 4.77583M9.16667 10.8333L17.5 2.5M6.25 17.5C6.74246 17.5 7.23009 17.403 7.68506 17.2145C8.14003 17.0261 8.55343 16.7499 8.90165 16.4016C9.24987 16.0534 9.52609 15.64 9.71455 15.1851C9.903 14.7301 10 14.2425 10 13.75C10 13.2575 9.903 12.7699 9.71455 12.3149C9.52609 11.86 9.24987 11.4466 8.90165 11.0983C8.55343 10.7501 8.14003 10.4739 7.68506 10.2855C7.23009 10.097 6.74246 10 6.25 10C5.25544 10 4.30161 10.3951 3.59835 11.0983C2.89509 11.8016 2.5 12.7554 2.5 13.75C2.5 14.7446 2.89509 15.6984 3.59835 16.4016C4.30161 17.1049 5.25544 17.5 6.25 17.5Z" stroke="white" stroke-width="1.5" stroke-linecap="round" stroke-linejoin="round"/>
</svg>
