<svg width="20" height="20" viewBox="0 0 20 20" fill="none" xmlns="http://www.w3.org/2000/svg">
<g opacity="0.7">
<path d="M6.66669 8.33333V6.66667C6.66669 4.36583 7.69919 2.5 10 2.5C12.3009 2.5 13.3334 4.36583 13.3334 6.66667V8.33333M10 13.125V12.7083M13.3334 13.125V12.7083M6.66669 13.125V12.7083M2.91669 14.8333V11C2.91669 10.0667 2.91669 9.6 3.09835 9.24417C3.258 8.93027 3.51297 8.675 3.82669 8.515C4.18335 8.33417 4.65002 8.33417 5.58335 8.33417H14.4167C15.35 8.33417 15.8167 8.33417 16.1734 8.515C16.4869 8.67479 16.7419 8.92974 16.9017 9.24333C17.0834 9.6 17.0834 10.0667 17.0834 11V14.8333C17.0834 15.7667 17.0834 16.2333 16.9017 16.59C16.7419 16.9036 16.4869 17.1585 16.1734 17.3183C15.8167 17.5 15.35 17.5 14.4167 17.5H5.58335C4.65002 17.5 4.18335 17.5 3.82669 17.3183C3.5131 17.1585 3.25814 16.9036 3.09835 16.59C2.91669 16.2342 2.91669 15.7675 2.91669 14.8333Z" stroke="black" stroke-width="1.5" stroke-linecap="round" stroke-linejoin="round"/>
</g>
</svg>
