<svg width="20" height="20" viewBox="0 0 20 20" fill="none" xmlns="http://www.w3.org/2000/svg">
<g opacity="0.7">
<path d="M6.6826 6.29331L6.09343 5.70414M9.1501 16.8283L3.06843 10.7466C2.7601 10.4383 2.5851 10.0216 2.57926 9.58664L2.5001 3.34581C2.49841 3.23426 2.51914 3.12352 2.56105 3.02014C2.60296 2.91675 2.6652 2.82284 2.74408 2.74396C2.82296 2.66507 2.91688 2.60283 3.02026 2.56092C3.12364 2.51901 3.23439 2.49829 3.34593 2.49997L9.58676 2.57914C10.0225 2.58427 10.4389 2.75987 10.7468 3.06831L16.8284 9.14997C17.3901 9.71081 17.8218 10.7825 17.1818 11.4225L11.4234 17.1808C10.7826 17.8216 9.71093 17.3891 9.1501 16.8283Z" stroke="black" stroke-width="1.5" stroke-linecap="round" stroke-linejoin="round"/>
</g>
</svg>
