<svg width="24" height="24" viewBox="0 0 24 24" fill="none" xmlns="http://www.w3.org/2000/svg">
<path d="M17 19.5C17 17.843 14.761 16.5 12 16.5C9.239 16.5 7 17.843 7 19.5M21 16.5C21 15.27 19.766 14.213 18 13.75M3 16.5C3 15.27 4.234 14.213 6 13.75M18 9.73603C18.2963 9.47412 18.5378 9.15622 18.7108 8.80063C18.8838 8.44503 18.9847 8.05874 19.0079 7.66399C19.031 7.26923 18.9759 6.8738 18.8456 6.50042C18.7154 6.12705 18.5127 5.7831 18.249 5.48837C17.9854 5.19364 17.6661 4.95393 17.3095 4.78303C16.9529 4.61214 16.5661 4.51343 16.1712 4.49258C15.7763 4.47173 15.3812 4.52915 15.0086 4.66155C14.636 4.79394 14.2932 4.99869 14 5.26403M6 9.73603C5.4123 9.20417 5.05896 8.46135 5.01717 7.66983C4.97538 6.8783 5.24853 6.1024 5.77696 5.51162C6.30539 4.92083 7.04614 4.56318 7.83741 4.51679C8.62868 4.4704 9.40616 4.73904 10 5.26403M12 13.5C11.2044 13.5 10.4413 13.184 9.87868 12.6213C9.31607 12.0587 9 11.2957 9 10.5C9 9.70438 9.31607 8.94132 9.87868 8.37871C10.4413 7.8161 11.2044 7.50003 12 7.50003C12.7956 7.50003 13.5587 7.8161 14.1213 8.37871C14.6839 8.94132 15 9.70438 15 10.5C15 11.2957 14.6839 12.0587 14.1213 12.6213C13.5587 13.184 12.7956 13.5 12 13.5Z" stroke="white" stroke-width="1.5" stroke-linecap="round" stroke-linejoin="round"/>
</svg>
