<svg width="16" height="16" viewBox="0 0 16 16" fill="none" xmlns="http://www.w3.org/2000/svg">
<path d="M3.5 3.85198L4.65133 11.9707C4.71133 12.3567 4.87067 12.7173 5.112 13.0133C5.34923 13.3058 5.6642 13.5253 6.02067 13.6467L6.18467 13.702C7.3623 14.0992 8.6377 14.0992 9.81533 13.702L9.97933 13.6473C10.3313 13.5287 10.646 13.31 10.8873 13.014C11.1287 12.718 11.2887 12.3573 11.3487 11.9713L12.5 3.85132" stroke="white" stroke-width="1.5" stroke-linecap="round" stroke-linejoin="round"/>
<path d="M8 4.99996C10.4853 4.99996 12.5 4.47729 12.5 3.83329C12.5 3.18929 10.4853 2.66663 8 2.66663C5.51467 2.66663 3.5 3.18929 3.5 3.83329C3.5 4.47729 5.51467 4.99996 8 4.99996Z" stroke="white" stroke-width="1.5" stroke-linecap="round" stroke-linejoin="round"/>
</svg>
