<svg width="24" height="24" viewBox="0 0 24 24" fill="none" xmlns="http://www.w3.org/2000/svg">
<path d="M13.44 18.12V19.56C13.44 20.37 14.07 21 14.88 21C15.69 21 16.32 20.37 16.32 19.56C16.32 18.75 15.69 18.12 14.88 18.12H13.44ZM21 14.52C21 13.62 20.28 12.81 19.29 12.81H15.15C14.25 12.81 13.44 13.53 13.44 14.52C13.44 15.42 14.16 16.23 15.15 16.23H19.29C20.19 16.23 21 15.42 21 14.52ZM6.06 13.26H4.62C3.81 13.26 3.18 13.89 3.18 14.7C3.18 15.51 3.81 16.14 4.62 16.14C5.43 16.14 6.06 15.51 6.06 14.7V13.26ZM9.66 20.82C10.56 20.82 11.37 20.1 11.37 19.11V14.97C11.37 14.07 10.65 13.26 9.66 13.26C8.76 13.26 7.95 13.98 7.95 14.97V19.11C8.04 20.01 8.76 20.82 9.66 20.82ZM10.56 4.44C10.56 3.63 9.93 3 9.12 3C8.31 3 7.68 3.63 7.68 4.44C7.68 5.25 8.31 5.88 9.12 5.88H10.56V4.44ZM3 9.48C3 10.38 3.72 11.19 4.71 11.19H8.85C9.75 11.19 10.56 10.47 10.56 9.48C10.56 8.58 9.84 7.77 8.85 7.77H4.71C3.72 7.86 3 8.58 3 9.48ZM17.94 10.74H19.38C20.19 10.74 20.82 10.11 20.82 9.3C20.82 8.49 20.19 7.86 19.38 7.86C18.57 7.86 17.94 8.49 17.94 9.3V10.74ZM14.25 3.27C13.35 3.27 12.54 3.99 12.54 4.98V9.12C12.54 10.02 13.26 10.83 14.25 10.83C15.15 10.83 15.96 10.11 15.96 9.12V4.89C15.96 3.99 15.24 3.27 14.25 3.27Z" stroke="white" stroke-width="1.5" stroke-linecap="round" stroke-linejoin="round"/>
</svg>
