<svg width="24" height="24" viewBox="0 0 24 24" fill="none" xmlns="http://www.w3.org/2000/svg">
<path d="M15 9.00001L9.00003 15M9.00003 9.00001L15 15M9.71303 3.64001C10.294 3.14501 10.585 2.89701 10.889 2.75201C11.236 2.58646 11.6156 2.50055 12 2.50055C12.3845 2.50055 12.7641 2.58646 13.111 2.75201C13.415 2.89701 13.706 3.14501 14.287 3.64001C14.886 4.15001 15.494 4.40801 16.294 4.47101C17.055 4.53201 17.436 4.56301 17.754 4.67501C18.488 4.93501 19.066 5.51201 19.325 6.24701C19.437 6.56401 19.468 6.94501 19.529 7.70701C19.592 8.50701 19.849 9.11401 20.359 9.71301C20.855 10.294 21.103 10.585 21.248 10.889C21.584 11.592 21.584 12.409 21.248 13.111C21.103 13.415 20.855 13.706 20.36 14.287C19.8645 14.8431 19.5716 15.5504 19.529 16.294C19.468 17.055 19.437 17.436 19.325 17.754C19.1966 18.1165 18.9888 18.4456 18.7169 18.7175C18.4449 18.9893 18.1156 19.1969 17.753 19.325C17.436 19.437 17.055 19.468 16.293 19.529C15.493 19.592 14.886 19.849 14.287 20.359C13.706 20.855 13.415 21.103 13.111 21.248C12.7641 21.4136 12.3845 21.4995 12 21.4995C11.6156 21.4995 11.236 21.4136 10.889 21.248C10.585 21.103 10.294 20.855 9.71303 20.36C9.15698 19.8645 8.44964 19.5716 7.70603 19.529C6.94503 19.468 6.56403 19.437 6.24603 19.325C5.88357 19.1966 5.5544 18.9888 5.28258 18.7168C5.01077 18.4449 4.80319 18.1156 4.67503 17.753C4.56303 17.436 4.53203 17.055 4.47103 16.293C4.42852 15.5499 4.13601 14.8429 3.64103 14.287C3.14503 13.706 2.89703 13.415 2.75103 13.111C2.58563 12.764 2.49989 12.3843 2.50006 11.9999C2.50023 11.6155 2.58632 11.2359 2.75203 10.889C2.89703 10.585 3.14503 10.294 3.64003 9.71301C4.16003 9.10201 4.40903 8.49001 4.47103 7.70601C4.53203 6.94501 4.56303 6.56401 4.67503 6.24601C4.80342 5.88356 5.01121 5.55438 5.2832 5.28257C5.55518 5.01076 5.88449 4.80318 6.24703 4.67501C6.56403 4.56301 6.94503 4.53201 7.70703 4.47101C8.45016 4.4285 9.1571 4.135 9.71303 3.64001Z" stroke="white" stroke-width="1.5" stroke-linecap="round" stroke-linejoin="round"/>
</svg>
