<svg width="20" height="20" viewBox="0 0 20 20" fill="none" xmlns="http://www.w3.org/2000/svg">
<path d="M8.09418 3.03335C8.57835 2.62085 8.82084 2.41419 9.07418 2.29335C9.36332 2.1554 9.67964 2.0838 10 2.0838C10.3204 2.0838 10.6367 2.1554 10.9258 2.29335C11.1792 2.41419 11.4217 2.62085 11.9058 3.03335C12.405 3.45835 12.9117 3.67336 13.5783 3.72586C14.2125 3.77669 14.53 3.80252 14.795 3.89586C15.4067 4.11252 15.8883 4.59336 16.1042 5.20586C16.1975 5.47002 16.2233 5.78752 16.2742 6.42252C16.3267 7.08919 16.5408 7.59502 16.9658 8.09419C17.3792 8.57836 17.5858 8.82085 17.7067 9.07419C17.9867 9.66002 17.9867 10.3409 17.7067 10.9259C17.5858 11.1792 17.3792 11.4217 16.9667 11.9059C16.5537 12.3692 16.3096 12.9587 16.2742 13.5784C16.2233 14.2125 16.1975 14.53 16.1042 14.795C15.9972 15.0971 15.824 15.3714 15.5974 15.5979C15.3707 15.8244 15.0963 15.9974 14.7942 16.1042C14.53 16.1975 14.2125 16.2234 13.5775 16.2742C12.9108 16.3267 12.405 16.5409 11.9058 16.9659C11.4217 17.3792 11.1792 17.5859 10.9258 17.7067C10.6367 17.8446 10.3204 17.9162 10 17.9162C9.67964 17.9162 9.36332 17.8446 9.07418 17.7067C8.82084 17.5859 8.57835 17.3792 8.09418 16.9667C7.6308 16.5537 7.04135 16.3097 6.42168 16.2742C5.78751 16.2234 5.47001 16.1975 5.20501 16.1042C4.90296 15.9972 4.62865 15.824 4.40214 15.5974C4.17563 15.3707 4.00265 15.0963 3.89584 14.7942C3.80251 14.53 3.77668 14.2125 3.72584 13.5775C3.69042 12.9582 3.44667 12.3691 3.03418 11.9059C2.62084 11.4217 2.41418 11.1792 2.29251 10.9259C2.15468 10.6366 2.08323 10.3203 2.08337 9.99993C2.08352 9.67956 2.15526 9.36327 2.29334 9.07419C2.41418 8.82085 2.62084 8.57836 3.03334 8.09419C3.46668 7.58502 3.67418 7.07502 3.72584 6.42169C3.77668 5.78752 3.80251 5.47002 3.89584 5.20502C4.00284 4.90297 4.176 4.62866 4.40265 4.40215C4.62931 4.17564 4.90373 4.00266 5.20584 3.89586C5.47001 3.80252 5.78751 3.77669 6.42251 3.72586C7.04179 3.69043 7.63091 3.44584 8.09418 3.03335Z" stroke="#046131" stroke-width="1.5" stroke-linecap="round" stroke-linejoin="round"/>
<path d="M7.22247 10.5275L8.47664 11.9617C8.55917 12.0561 8.66196 12.1307 8.77733 12.1799C8.89271 12.2291 9.0177 12.2516 9.14298 12.2457C9.26827 12.2399 9.39062 12.2058 9.50091 12.1461C9.61121 12.0864 9.7066 12.0026 9.77997 11.9008L12.7775 7.75" stroke="#046131" stroke-width="1.5" stroke-linecap="round" stroke-linejoin="round"/>
</svg>
