<svg width="38" height="38" viewBox="0 0 38 38" fill="none" xmlns="http://www.w3.org/2000/svg">
<rect width="38" height="38" rx="10" fill="#C64C21"/>
<path d="M28 23.2V21.1C28 19.42 28 18.58 27.673 17.938C27.3854 17.3735 26.9265 16.9146 26.362 16.627C25.72 16.3 24.88 16.3 23.2 16.3H21.7V14.8C21.7 13.12 21.7 12.28 21.373 11.638C21.0854 11.0735 20.6265 10.6146 20.062 10.327C19.42 10 18.58 10 16.9 10H14.8C13.12 10 12.28 10 11.638 10.327C11.0735 10.6146 10.6146 11.0735 10.327 11.638C10 12.28 10 13.12 10 14.8V16.9C10 18.58 10 19.42 10.327 20.062C10.6146 20.6265 11.0735 21.0854 11.638 21.373C12.28 21.7 13.12 21.7 14.8 21.7H16.3V23.2C16.3 24.88 16.3 25.72 16.627 26.362C16.9146 26.9265 17.3735 27.3854 17.938 27.673C18.58 28 19.42 28 21.1 28H23.2C24.88 28 25.72 28 26.362 27.673C26.9265 27.3854 27.3854 26.9265 27.673 26.362C28 25.72 28 24.88 28 23.2Z" stroke="#FFEDD4" stroke-width="1.5" stroke-linecap="round" stroke-linejoin="round"/>
</svg>
