<svg width="38" height="38" viewBox="0 0 38 38" fill="none" xmlns="http://www.w3.org/2000/svg">
<rect width="38" height="38" rx="10" fill="#82181A"/>
<path d="M17 16V22M21 16V22M16.713 10.64C17.294 10.145 17.585 9.89695 17.889 9.75195C18.2359 9.5864 18.6155 9.50049 19 9.50049C19.3844 9.50049 19.764 9.5864 20.111 9.75195C20.415 9.89695 20.706 10.145 21.287 10.64C21.886 11.15 22.494 11.408 23.294 11.471C24.055 11.532 24.436 11.563 24.754 11.675C25.488 11.935 26.066 12.512 26.325 13.247C26.437 13.564 26.468 13.945 26.529 14.707C26.592 15.507 26.849 16.114 27.359 16.713C27.855 17.294 28.103 17.585 28.248 17.889C28.584 18.592 28.584 19.409 28.248 20.111C28.103 20.415 27.855 20.706 27.36 21.287C26.8644 21.843 26.5715 22.5503 26.529 23.294C26.468 24.055 26.437 24.436 26.325 24.754C26.1966 25.1164 25.9888 25.4456 25.7168 25.7174C25.4448 25.9892 25.1155 26.1968 24.753 26.325C24.436 26.437 24.055 26.468 23.293 26.529C22.493 26.592 21.886 26.849 21.287 27.359C20.706 27.855 20.415 28.103 20.111 28.248C19.764 28.4135 19.3844 28.4994 19 28.4994C18.6155 28.4994 18.2359 28.4135 17.889 28.248C17.585 28.103 17.294 27.855 16.713 27.36C16.1569 26.8644 15.4496 26.5715 14.706 26.529C13.945 26.468 13.564 26.437 13.246 26.325C12.8835 26.1966 12.5543 25.9888 12.2825 25.7168C12.0107 25.4448 11.8031 25.1155 11.675 24.753C11.563 24.436 11.532 24.055 11.471 23.293C11.4285 22.5498 11.136 21.8429 10.641 21.287C10.145 20.706 9.89696 20.415 9.75096 20.111C9.58557 19.7639 9.49983 19.3843 9.5 18.9998C9.50017 18.6154 9.58626 18.2359 9.75196 17.889C9.89696 17.585 10.145 17.294 10.64 16.713C11.16 16.102 11.409 15.49 11.471 14.706C11.532 13.945 11.563 13.564 11.675 13.246C11.8034 12.8835 12.0111 12.5543 12.2831 12.2825C12.5551 12.0107 12.8844 11.8031 13.247 11.675C13.564 11.563 13.945 11.532 14.707 11.471C15.4501 11.4284 16.157 11.1349 16.713 10.64Z" stroke="#FFE2E3" stroke-width="1.5" stroke-linecap="round" stroke-linejoin="round"/>
</svg>
