<svg width="38" height="38" viewBox="0 0 38 38" fill="none" xmlns="http://www.w3.org/2000/svg">
<rect width="38" height="38" rx="10" fill="#0075D4"/>
<path d="M17.564 20.708C17.5726 20.6375 17.5662 20.5661 17.5453 20.4983C17.5243 20.4304 17.4893 20.3678 17.4425 20.3145C17.3957 20.2611 17.3381 20.2183 17.2736 20.1887C17.209 20.1592 17.139 20.1436 17.068 20.143H14C13.9171 20.1421 13.8356 20.1208 13.7628 20.081C13.69 20.0412 13.6281 19.9841 13.5826 19.9148C13.537 19.8454 13.5092 19.7659 13.5016 19.6833C13.494 19.6007 13.5069 19.5175 13.539 19.441L17.446 10.313C17.4831 10.2211 17.5466 10.1423 17.6285 10.0866C17.7104 10.0309 17.807 10.0007 17.906 10H22.424C22.777 10 23.018 10.36 22.889 10.694L20.664 16.406C20.6335 16.4823 20.622 16.5649 20.6305 16.6467C20.6391 16.7285 20.6675 16.8069 20.7131 16.8753C20.7588 16.9436 20.8205 16.9998 20.8928 17.039C20.9651 17.0781 21.0458 17.0991 21.128 17.1H24C24.412 17.1 24.647 17.579 24.398 17.913L16.928 27.959C16.866 28.042 16.737 27.989 16.748 27.887L17.564 20.708Z" stroke="#D9EEFF" stroke-width="1.5" stroke-linecap="round" stroke-linejoin="round"/>
</svg>
